<?xml version="1.0" encoding="utf-8"?>
<!-- Generator: Adobe Illustrator 21.1.0, SVG Export Plug-In . SVG Version: 6.00 Build 0)  -->
<svg version="1.1" id="Layer_1" xmlns="http://www.w3.org/2000/svg" xmlns:xlink="http://www.w3.org/1999/xlink" x="0px" y="0px"
	 viewBox="0 0 137.1 32.2" style="enable-background:new 0 0 137.1 32.2;" xml:space="preserve">
<style type="text/css">
	.st0{fill:#08B674;}
	.st1{enable-background:new    ;}
	.st2{fill:#565656;}
</style>
<title>logo3</title>
<g>
	<path class="st0" d="M71,15.2v0.9h8.6v-1c0-1.1-0.9-0.3-1.8-1.8l-4.5-7.5l1.5-1.8C76.7,2,78,3.5,78,1.8V0.9h-6.8V2
		c0,1.1,1.1,0.3,1.1,1.1c-0.1,0.5-0.3,0.9-0.7,1.2l-2.6,2.9v-2c0-2,0-2.2,0.6-2.5c0.6-0.3,0.6-0.3,0.6-0.9v-1h-7.8V2
		c0,1.4,1.4,0.1,1.4,2v9.1c0,1.9-1.4,0.6-1.4,2v1.1h7.8v-1c0-0.6,0-0.7-0.5-0.9c-0.7-0.3-0.7-0.4-0.7-2.5V8.8l0,0l2.4,4.1
		c0.2,0.3,0.4,0.6,0.4,1C71.9,14.7,71,14,71,15.2z M80,17.5v1.6c1.9,0,6.8-1.1,6.8-6.5v-8c0-1,0-1.7,0.7-1.8s0.8-0.2,0.8-0.9v-1
		h-8.2v1c0,0.7,0.2,0.7,0.7,0.8c0.7,0.1,1,0.2,1,1.6v9.1c0,0.9-0.1,1.8-0.4,2.7C81,16.7,80.5,17.2,80,17.5L80,17.5z M38.3,15v1.2
		h9.2v-0.9c0-1.4-1.1-0.3-1.8-2L40.5,0.5c-0.3-0.6-0.3-0.6-0.9-0.4L36,2c-0.2,0.1-0.5,0.3-0.3,0.6L36,3.7l-4,9.4
		c-0.8,2-2.1,0.9-2.1,2.2v0.8h5.8v-0.8c0-1.6-1.5-0.4-1.5-1.7c0-0.4,0.1-0.9,0.3-1.2h4.9c0.2,0.4,0.4,0.8,0.4,1.2
		C39.9,14.4,38.3,14.1,38.3,15z M35.4,10.4l1.6-4l1.6,4H35.4z M96,15v1.2h9.2v-0.9c0-1.4-1.1-0.3-1.8-2L98.1,0.5
		c-0.3-0.6-0.3-0.6-0.9-0.4L93.6,2c-0.2,0.1-0.5,0.3-0.3,0.6l0.4,1.1l-4,9.4c-0.8,2-2.1,0.9-2.1,2.2v0.8h5.8v-0.8
		c0-1.6-1.4-0.4-1.4-1.7c0-0.4,0.1-0.9,0.3-1.2h4.9c0.2,0.4,0.3,0.8,0.3,1.3C97.4,14.4,95.9,14.1,96,15L96,15z M93,10.4l1.6-4l1.6,4
		H93z M112.7,16.5c4.4,0,6.2-2.6,6.2-3.3c0-0.2-0.1-0.4-1.3-1.2c-0.7,1.3-2.1,2.2-3.6,2.2c-3.7,0-3.7-5-3.7-5.9
		c0-1.3,0.2-5.9,3.3-5.9c1.6,0,2.1,1.1,2.5,2.1c0.6,1.3,0.6,1.3,1.2,1.3h1.3V1.3h-1.4c-0.4,0-0.4,0.3-0.7,0.3
		c-1.3-0.6-2.8-1-4.3-1.1c-3.5,0-8.2,2.3-8.2,7.8C103.9,12.3,106.6,16.5,112.7,16.5L112.7,16.5z M55.1,16.5c4.4,0,6.2-2.6,6.2-3.3
		c0-0.2-0.1-0.4-1.3-1.2c-0.7,1.3-2.1,2.2-3.6,2.2c-3.7,0-3.7-5-3.7-5.9c0-1.3,0.2-5.9,3.3-5.9c1.5,0,2.1,1.1,2.5,2
		C59,5.8,59,5.8,59.7,5.8h1.3V1.3h-1.4c-0.4,0-0.4,0.3-0.7,0.3c-1.3-0.6-2.8-1-4.3-1.1c-3.5,0-8.2,2.3-8.2,7.8
		C46.4,12.3,49.1,16.5,55.1,16.5L55.1,16.5z M135.3,13.4l-4.5-7.5l1.5-1.8c1.8-2.1,3.1-0.6,3.1-2.3V0.9h-6.7V2
		c0,1.1,1.1,0.3,1.1,1.1c-0.1,0.5-0.3,0.9-0.7,1.2l-2.6,2.9v-2c0-2,0-2.2,0.6-2.5c0.6-0.3,0.6-0.3,0.6-0.9v-1H120V2
		c0,1.4,1.4,0.1,1.4,2v9.1c0,1.9-1.4,0.6-1.4,2v1.1h7.8v-1c0-0.6,0-0.7-0.5-0.9c-0.7-0.3-0.7-0.4-0.7-2.5V8.8l0,0l2.4,4.1
		c0.2,0.3,0.4,0.6,0.4,1c0,0.8-0.9,0.1-0.9,1.3v0.9h8.6v-1C137.1,14,136.2,14.8,135.3,13.4z M0,15.1v1.1h10c3.8,0,5.6-1.7,5.6-4.5
		c0-1-0.4-1.9-1.1-2.5c-0.9-0.8-2-1-3.7-1.2l0,0c2.4,0,4.2-1.1,4.2-3.4C15.1,1,11.1,1,9.7,1H0v1c0,1.4,1.4,0,1.4,2.1v8.9
		C1.4,15.1,0,13.6,0,15.1z M6.6,2.9h1c0.7,0,2,0,2,2.1C9.7,6,9,7.1,7.9,7.2c-0.2,0-0.3,0-0.5,0H6.6V2.9z M6.6,9.2h0.9
		c1.3,0,2.4,1,2.5,2.3c0,0.1,0,0.3,0,0.4c0,1.4-0.6,2.3-2.1,2.3H6.6V9.2z M16.2,15.1v1.1H29v-4.8h-0.9c-1.9,0-0.4,2.8-3.6,2.8h-1.9
		V4.2c0-2.2,1.4-0.8,1.4-2.2V0.9h-7.9V2c0,1.4,1.4,0,1.4,2.2v8.7C17.5,15.1,16.2,13.6,16.2,15.1L16.2,15.1z"/>
</g>
<g class="st1">
	<path class="st2" d="M17.6,28.4l-0.4-1.1h-2.8L14,28.4h-1.6l2.5-6.5h1.7l2.5,6.5H17.6z M15.8,23.3l-1,2.8h2L15.8,23.3z"/>
	<path class="st2" d="M22.1,28.4v-6.5h3c1.4,0,2.2,1,2.2,2.1c0,1.1-0.8,2.1-2.2,2.1h-1.7v2.3H22.1z M25.9,24c0-0.5-0.4-0.9-1-0.9
		h-1.5v1.8h1.5C25.5,24.9,25.9,24.6,25.9,24z"/>
	<path class="st2" d="M30.5,28.4v-6.5h3c1.4,0,2.2,1,2.2,2.1c0,1.1-0.8,2.1-2.2,2.1h-1.7v2.3H30.5z M34.3,24c0-0.5-0.4-0.9-1-0.9
		h-1.5v1.8h1.5C33.9,24.9,34.3,24.6,34.3,24z"/>
	<path class="st2" d="M42.6,28.4l-1.3-2.3h-1v2.3h-1.4v-6.5h3c1.4,0,2.2,0.9,2.2,2.1c0,1.1-0.7,1.8-1.4,1.9l1.5,2.5H42.6z M42.7,24
		c0-0.5-0.4-0.9-1-0.9h-1.5v1.8h1.5C42.3,24.9,42.7,24.6,42.7,24z"/>
	<path class="st2" d="M47.5,28.4v-6.5h4.6v1.2h-3.2v1.4H52v1.2h-3.1v1.5h3.2v1.2H47.5z"/>
	<path class="st2" d="M60,28.4l-3.1-4.2v4.2h-1.4v-6.5h1.4l3,4.1v-4.1h1.4v6.5H60z"/>
	<path class="st2" d="M66.4,28.4v-5.3h-1.9v-1.2h5.2v1.2h-1.9v5.3H66.4z"/>
	<path class="st2" d="M72.9,28.4v-6.5h1.4v6.5H72.9z"/>
	<path class="st2" d="M77.6,25.2c0-2,1.5-3.4,3.5-3.4c1.4,0,2.3,0.8,2.7,1.6L82.6,24c-0.3-0.5-0.9-0.9-1.5-0.9c-1.2,0-2,0.9-2,2.1
		s0.9,2.1,2,2.1c0.7,0,1.3-0.4,1.5-0.9l1.2,0.6c-0.5,0.8-1.3,1.6-2.7,1.6C79.1,28.5,77.6,27.2,77.6,25.2z"/>
	<path class="st2" d="M87,28.4v-6.5h4.6v1.2h-3.2v1.4h3.1v1.2h-3.1v1.5h3.2v1.2H87z"/>
	<path class="st2" d="M94.5,27.5l0.7-1.1c0.5,0.5,1.2,0.9,2.1,0.9c0.8,0,1.1-0.4,1.1-0.7c0-1.1-3.7-0.4-3.7-2.8c0-1.1,0.9-2,2.5-2
		c1,0,1.9,0.3,2.5,0.9l-0.8,1c-0.5-0.5-1.2-0.7-1.9-0.7c-0.6,0-0.9,0.3-0.9,0.7c0,1,3.7,0.3,3.7,2.8c0,1.2-0.8,2.1-2.6,2.1
		C96,28.5,95.1,28.1,94.5,27.5z"/>
	<path class="st2" d="M107.6,28.4v-2.7h-3.1v2.7h-1.4v-6.5h1.4v2.6h3.1v-2.6h1.4v6.5H107.6z"/>
	<path class="st2" d="M112.6,28.4v-6.5h1.4v6.5H112.6z"/>
</g>
<g class="st1">
	<path class="st2" d="M118.8,28.4v-6.5h3c1.4,0,2.2,1,2.2,2.1c0,1.1-0.8,2.1-2.2,2.1h-1.7v2.3H118.8z M122.6,24c0-0.5-0.4-0.9-1-0.9
		h-1.5v1.8h1.5C122.2,24.9,122.6,24.6,122.6,24z"/>
</g>
</svg>
