<svg xmlns="http://www.w3.org/2000/svg" version="1.1" xmlns:xlink="http://www.w3.org/1999/xlink" xmlns:svgjs="http://svgjs.dev/svgjs" width="1440" height="560" preserveAspectRatio="none" viewBox="0 0 1440 560"><g mask="url(&quot;#SvgjsMask1072&quot;)" fill="none"><rect width="1440" height="560" x="0" y="0" fill="rgba(230, 235, 229, 1)"></rect><path d="M0,397.643C73.264,390.457,135.398,346.451,194.113,302.046C249.115,260.449,295.328,210.537,327.827,149.714C361.967,85.821,393.677,16.564,385.088,-55.367C376.417,-127.988,331.734,-190.819,280.89,-243.392C231.918,-294.029,169.615,-327.62,102.159,-347.92C34.358,-368.324,-41.046,-388.753,-105.619,-359.706C-168.614,-331.369,-177.31,-244.141,-229.4,-198.776C-294.668,-141.934,-424.393,-148.027,-445.156,-64.004C-465.185,17.049,-354.357,70.315,-313.949,143.376C-277.683,208.947,-278.459,295.524,-220.229,342.684C-160.217,391.287,-76.856,405.181,0,397.643" fill="#d9e1d8"></path><path d="M1440 1080.489C1554.584 1085.605 1679.622 1144.983 1777.1019999999999 1084.54 1874.595 1024.089 1878.6770000000001 886.398 1923.393 780.758 1966.6509999999998 678.562 2070.413 579.694 2035.364 474.4 1999.246 365.89599999999996 1830.223 373.10900000000004 1758.144 284.327 1681.981 190.514 1720.55 20.182999999999993 1616.592-41.41700000000003 1515.942-101.05700000000002 1386.639-36.928999999999974 1274.992-1.9669999999999845 1165.066 32.45600000000002 1031.623 57.410000000000025 977.053 158.85399999999998 922.247 260.736 1006.711 381.948 1006.24 497.635 1005.857 591.79 955.4639999999999 680.361 974.5550000000001 772.561 996.5409999999999 878.745 1031.268 995.448 1121.704 1055.278 1212.3029999999999 1115.216 1331.477 1075.644 1440 1080.489" fill="#f3f5f2"></path></g><defs><mask id="SvgjsMask1072"><rect width="1440" height="560" fill="#ffffff"></rect></mask></defs></svg>